<svg id="Capa_1" fill="#ffffff" enable-background="new 0 0 512 512" height="512" viewBox="0 0 512 512" width="512" xmlns="http://www.w3.org/2000/svg"><g><path d="m271 44.49v-44.49h-30v44.49l-150 119.81v347.7h330v-347.7zm0 127.238c0 8.245-6.729 14.952-15 14.952-8.272 0-15-6.707-15-14.952s6.728-14.952 15-14.952c8.271-.001 15 6.706 15 14.952zm120 310.272h-270v-303.267l120-95.849v46.468c-17.459 6.186-30 22.841-30 42.375 0 24.787 20.186 44.952 45 44.952 24.813 0 45-20.165 45-44.952 0-19.534-12.541-36.189-30-42.375v-46.467l120 95.849z"/><path d="m165 255h180v30h-180z"/><path d="m165 330h180v30h-180z"/><path d="m165 405h180v30h-180z"/></g></svg>
