<svg height="512" viewBox="0 0 60 58" width="512" xmlns="http://www.w3.org/2000/svg">
  <g id="Page-1" fill="none" fill-rule="evenodd">
    <g id="069---Online-Pricing" fill="rgb(255,255,255)" fill-rule="nonzero">
      <path id="Shape" d="m27 7h6c.5522847 0 1-.44771525 1-1s-.4477153-1-1-1h-6c-.5522847 0-1 .44771525-1 1s.4477153 1 1 1z"/>
      <path id="Shape" d="m44 7h11c.5522847 0 1-.44771525 1-1s-.4477153-1-1-1h-11c-.5522847 0-1 .44771525-1 1s.4477153 1 1 1z"/>
      <path id="Shape"
        d="m55 0h-50c-2.76005315.00330612-4.99669388 2.23994685-5 5v38c.00330612 2.7600532 2.23994685 4.9966939 5 5h23.586l9 9c.6378529.639361 1.5038728.9986772 2.407.9986772s1.7691471-.3593162 2.407-.9986772l9-9h3.6c2.7600532-.0033061 4.9966939-2.2399468 5-5v-38c-.0033061-2.76005315-2.2399468-4.99669388-5-5zm-50 2h50c1.6568542 0 3 1.34314575 3 3v4h-56v-4c0-1.65685425 1.34314575-3 3-3zm35.984 53.59c-.262555.2625818-.6186722.410101-.99.410101s-.727445-.1475192-.99-.410101l-9.3-9.3-9.419-9.419c-.1868109-.1879855-.2920728-.4419793-.293-.707v-13.17c0-.5522847.4477153-1 1-1h13.174c.2650207.0009272.5190145.1061891.707.293l18.717 18.713c.2625818.262555.410101.6186722.410101.99s-.1475192.727445-.410101.99zm14.016-9.59h-1.6l1.6-1.6c1.3275652-1.3277453 1.3275652-3.4802547 0-4.808l-18.713-18.719c-.5613492-.5643349-1.3250204-.880821-2.121-.879h-13.172c-1.6568542 0-3 1.3431458-3 3v13.172c-.001821.7959796.3146651 1.5596508.879 2.121l7.713 7.713h-21.586c-1.65685425 0-3-1.3431458-3-3v-32h56v32c0 1.6568542-1.3431458 3-3 3z"/>
      <circle id="Oval" cx="5" cy="6" r="1"/>
      <circle id="Oval" cx="9" cy="6" r="1"/>
      <circle id="Oval" cx="13" cy="6" r="1"/>
      <path id="Shape" d="m15 13h-4c-.5522847 0-1 .4477153-1 1s.4477153 1 1 1h4c.5522847 0 1-.4477153 1-1s-.4477153-1-1-1z"/>
      <path id="Shape" d="m49 13h-4c-.5522847 0-1 .4477153-1 1s.4477153 1 1 1h4c.5522847 0 1-.4477153 1-1s-.4477153-1-1-1z"/>
      <path id="Shape" d="m41 13h-22c-.5522847 0-1 .4477153-1 1s.4477153 1 1 1h22c.5522847 0 1-.4477153 1-1s-.4477153-1-1-1z"/>
      <path id="Shape"
        d="m38.408 29.994c-.7809997-.7807639-2.0470003-.7807639-2.828 0l-7.586 7.586c-.7807639.7809997-.7807639 2.0470003 0 2.828l10.586 10.586c.7809997.7807639 2.0470003.7807639 2.828 0l7.586-7.586c.7807639-.7809997.7807639-2.0470003 0-2.828zm1.586 19.586-10.586-10.586 7.586-7.586 10.587 10.585z"/>
      <path id="Shape"
        d="m28.994 27.994c0-1.6568542-1.3431458-3-3-3s-3 1.3431458-3 3 1.3431458 3 3 3 3-1.3431458 3-3zm-3 1c-.5522847 0-1-.4477153-1-1s.4477153-1 1-1 1 .4477153 1 1-.4477153 1-1 1z"/>
      <path id="Shape"
        d="m33.287 40.7c.3904999.3903819 1.0235001.3903819 1.414 0l4-4c.3789722-.3923789.3735524-1.0160848-.0121814-1.4018186s-1.0094397-.3911536-1.4018186-.0121814l-4 4c-.3903819.3904999-.3903819 1.0235001 0 1.414z"/>
      <path id="Shape"
        d="m36.287 43.7c.3904999.3903819 1.0235001.3903819 1.414 0l4-4c.3789722-.3923789.3735524-1.0160848-.0121814-1.4018186s-1.0094397-.3911536-1.4018186-.0121814l-4 4c-.3903819.3904999-.3903819 1.0235001 0 1.414z"/>
      <path id="Shape"
        d="m39.287 46.7c.3904999.3903819 1.0235001.3903819 1.414 0l4-4c.3789722-.3923789.3735524-1.0160848-.0121814-1.4018186s-1.0094397-.3911536-1.4018186-.0121814l-4 4c-.3903819.3904999-.3903819 1.0235001 0 1.414z"/>
      <path id="Shape" d="m5 22h2c.55228475 0 1-.4477153 1-1s-.44771525-1-1-1h-2c-.55228475 0-1 .4477153-1 1s.44771525 1 1 1z"/>
      <path id="Shape" d="m14 20h-3c-.5522847 0-1 .4477153-1 1s.4477153 1 1 1h3c.5522847 0 1-.4477153 1-1s-.4477153-1-1-1z"/>
      <path id="Shape" d="m14 24h-9c-.55228475 0-1 .4477153-1 1s.44771525 1 1 1h9c.5522847 0 1-.4477153 1-1s-.4477153-1-1-1z"/>
      <path id="Shape" d="m5 30h2c.55228475 0 1-.4477153 1-1s-.44771525-1-1-1h-2c-.55228475 0-1 .4477153-1 1s.44771525 1 1 1z"/>
      <path id="Shape" d="m14 28h-3c-.5522847 0-1 .4477153-1 1s.4477153 1 1 1h3c.5522847 0 1-.4477153 1-1s-.4477153-1-1-1z"/>
      <path id="Shape" d="m14 32h-9c-.55228475 0-1 .4477153-1 1s.44771525 1 1 1h9c.5522847 0 1-.4477153 1-1s-.4477153-1-1-1z"/>
    </g>
  </g>
</svg>
